:FULLY-SPECIFIED
:FORCE-ALL-JOINTS-BE-3DOF
:DEGREES
918
root -0.223624 14.1213 -36.3434 372.186 -27.0561 343.47
lfemur -64.0999 31.6723 -0.237538
ltibia 69.658 0 0
lfoot -6.92271 -10.0978 0
ltoes -8.69802 0 0
rfemur 6.13895 -8.25013 13.3968
rtibia 38.9488 0 0
rfoot -22.3604 -29.0768 0
rtoes -27.2462 0 0
lowerback 11.3444 0.0631724 6.56763
upperback -1.46732 1.40219 5.65694
thorax -7.966 0.507282 2.0843
lowerneck -3.91466 7.71603 2.62232
upperneck 4.27739 10.1831 -0.707652
head 2.18847 5.09771 -0.334644
lclavicle 5.56563e-14 -2.10185e-14 0
lhumerus 9.2508 10.3306 74.2528
lradius 13.8355 0 0
lwrist -43.0773 0 0
lhand -27.7411 28.1818 0
lfingers 7.12502 0 0
lthumb -1.13574 58.1555 0
rclavicle 5.56563e-14 -2.10185e-14 0
rhumerus -76.9807 21.3562 -96.5119
rradius 109.925 0 0
rwrist -67.8907 0 0
rhand -10.9768 -24.6619 0
rfingers 7.12502 0 0
rthumb 15.0436 -54.1027 0
919
root -0.211734 14.1126 -36.3382 372.198 -27.0417 343.432
lfemur -64.2772 31.7722 -0.337192
ltibia 69.8539 0 0
lfoot -6.97871 -10.132 0
ltoes -8.59648 0 0
rfemur 6.16476 -8.313 13.3742
rtibia 38.9106 0 0
rfoot -22.3513 -29.0591 0
rtoes -27.3525 0 0
lowerback 11.3252 0.0409524 6.60326
upperback -1.46135 1.37794 5.70852
thorax -7.94924 0.495093 2.12402
lowerneck -3.90984 7.72558 2.65994
upperneck 4.30018 10.1955 -0.736071
head 2.20002 5.10375 -0.348553
lclavicle 5.77689e-14 -2.16136e-14 0
lhumerus 9.95467 9.50709 73.9727
lradius 14.448 0 0
lwrist -42.471 0 0
lhand -27.5915 28.1841 0
lfingers 7.12502 0 0
lthumb -0.991292 58.1593 0
rclavicle 5.77689e-14 -2.16136e-14 0
rhumerus -76.7917 21.4035 -96.3694
rradius 109.904 0 0
rwrist -67.6778 0 0
rhand -10.909 -24.6862 0
rfingers 7.12502 0 0
rthumb 15.1085 -54.1181 0
920
root -0.199547 14.1037 -36.3308 372.21 -27.0166 343.391
lfemur -64.4522 31.87 -0.433305
ltibia 70.0498 0 0
lfoot -7.03989 -10.174 0
ltoes -8.49836 0 0
rfemur 6.20791 -8.36705 13.3458
rtibia 38.8618 0 0
rfoot -22.3428 -29.0373 0
rtoes -27.4598 0 0
lowerback 11.3045 0.0176391 6.63753
upperback -1.45618 1.35211 5.76125
thorax -7.93256 0.482231 2.16618
lowerneck -3.9059 7.73444 2.69447
upperneck 4.32632 10.207 -0.761084
head 2.21233 5.10938 -0.360831
lclavicle 5.9489e-14 -2.21256e-14 0
lhumerus 10.6899 8.59409 73.6446
lradius 15.0892 0 0
lwrist -41.7791 0 0
lhand -27.4721 28.208 0
lfingers 7.12502 0 0
lthumb -0.875971 58.1847 0
rclavicle 5.9489e-14 -2.21256e-14 0
rhumerus -76.675 21.4255 -96.2704
rradius 109.896 0 0
rwrist -67.5199 0 0
rhand -10.8596 -24.7153 0
rfingers 7.12502 0 0
rthumb 15.1559 -54.1412 0
921
root -0.187022 14.0946 -36.3212 372.222 -26.9796 343.346
lfemur -64.625 31.9657 -0.525721
ltibia 70.2456 0 0
lfoot -7.10683 -10.225 0
ltoes -8.40423 0 0
rfemur 6.27026 -8.41145 13.3113
rtibia 38.8011 0 0
rfoot -22.3346 -29.0112 0
rtoes -27.5682 0 0
lowerback 11.2822 -0.00685124 6.67039
upperback -1.45189 1.32459 5.8152
thorax -7.91592 0.468645 2.21092
lowerneck -3.90288 7.74249 2.7256
upperneck 4.35596 10.2174 -0.782302
head 2.22542 5.11452 -0.371312
lclavicle 6.07908e-14 -2.25496e-14 0
lhumerus 11.4558 7.58907 73.2673
lradius 15.7569 0 0
lwrist -40.9986 0 0
lhand -27.3852 28.2548 0
lfingers 7.12502 0 0
lthumb -0.79209 58.233 0
rclavicle 6.07908e-14 -2.25496e-14 0
rhumerus -76.6377 21.4195 -96.2195
rradius 109.903 0 0
rwrist -67.4224 0 0
rhand -10.8302 -24.7497 0
rfingers 7.12502 0 0
rthumb 15.1841 -54.1726 0
922
root -0.176616 14.0871 -36.3122 372.232 -26.9459 343.308
lfemur -64.7642 32.0418 -0.598636
ltibia 70.4067 0 0
lfoot -7.16361 -10.2695 0
ltoes -8.32553 0 0
rfemur 6.32869 -8.44368 13.2791
rtibia 38.7478 0 0
rfoot -22.329 -28.9859 0
rtoes -27.6584 0 0
lowerback 11.2634 -0.0278934 6.69679
upperback -1.44872 1.30073 5.86073
thorax -7.90244 0.45692 2.2496
lowerneck -3.90072 7.74922 2.74976
upperneck 4.38303 10.2262 -0.798815
head 2.23696 5.11886 -0.379326
lclavicle 6.15991e-14 -2.28394e-14 0
lhumerus 12.1273 6.65172 72.9069
lradius 16.3541 0 0
lwrist -40.2661 0 0
lhand -27.3307 28.3112 0
lfingers 7.12502 0 0
lthumb -0.739496 58.2906 0
rclavicle 6.15991e-14 -2.28394e-14 0
rhumerus -76.6414 21.4035 -96.1984
rradius 109.916 0 0
rwrist -67.3676 0 0
rhand -10.815 -24.7805 0
rfingers 7.12502 0 0
rthumb 15.1988 -54.2023 0
923
root -0.166198 14.0795 -36.3029 372.242 -26.9157 343.269
lfemur -64.901 32.1155 -0.66931
ltibia 70.5698 0 0
lfoot -7.21945 -10.3117 0
ltoes -8.2401 0 0
rfemur 6.38527 -8.47604 13.2442
rtibia 38.6975 0 0
rfoot -22.3251 -28.9564 0
rtoes -27.7505 0 0
lowerback 11.2451 -0.0498978 6.72339
upperback -1.4455 1.27568 5.90792
thorax -7.88919 0.44462 2.29019
lowerneck -3.89841 7.75694 2.7742
upperneck 4.41273 10.2364 -0.816891
head 2.24951 5.12387 -0.387762
lclavicle 6.22533e-14 -2.30907e-14 0
lhumerus 12.8615 5.56605 72.4858
lradius 17.03 0 0
lwrist -39.4234 0 0
lhand -27.2815 28.3838 0
lfingers 7.12502 0 0
lthumb -0.691941 58.3644 0
rclavicle 6.22533e-14 -2.30907e-14 0
rhumerus -76.6448 21.3895 -96.1768
rradius 109.933 0 0
rwrist -67.3102 0 0
rhand -10.8 -24.8119 0
rfingers 7.12502 0 0
rthumb 15.2132 -54.2326 0
924
root -0.155773 14.0719 -36.2934 372.253 -26.889 343.231
lfemur -65.0353 32.1867 -0.73781
ltibia 70.7346 0 0
lfoot -7.27438 -10.3517 0
ltoes -8.14833 0 0
rfemur 6.44005 -8.50851 13.2069
rtibia 38.6502 0 0
rfoot -22.3228 -28.9229 0
rtoes -27.8445 0 0
lowerback 11.2273 -0.0728066 6.75013
upperback -1.44223 1.24951 5.95669
thorax -7.87619 0.431777 2.33259
lowerneck -3.89597 7.76559 2.7989
upperneck 4.44492 10.2481 -0.836441
head 2.26303 5.12953 -0.39659
lclavicle 6.27582e-14 -2.33046e-14 0
lhumerus 13.6558 4.33975 72.0066
lradius 17.7814 0 0
lwrist -38.4757 0 0
lhand -27.2374 28.4719 0
lfingers 7.12502 0 0
lthumb -0.649352 58.4536 0
rclavicle 6.27582e-14 -2.33046e-14 0
rhumerus -76.6478 21.3774 -96.1546
rradius 109.953 0 0
rwrist -67.2504 0 0
rhand -10.7852 -24.8438 0
rfingers 7.12502 0 0
rthumb 15.2275 -54.2634 0
925
root -0.145348 14.0643 -36.2837 372.264 -26.8656 343.193
lfemur -65.1671 32.2556 -0.804204
ltibia 70.9011 0 0
lfoot -7.32847 -10.3895 0
ltoes -8.05058 0 0
rfemur 6.49312 -8.54103 13.1671
rtibia 38.6056 0 0
rfoot -22.3222 -28.8857 0
rtoes -27.9402 0 0
lowerback 11.21 -0.096562 6.77696
upperback -1.43892 1.22227 6.00692
thorax -7.86344 0.418426 2.37671
lowerneck -3.89343 7.77514 2.82383
upperneck 4.47952 10.261 -0.857375
head 2.27747 5.13581 -0.405782
lclavicle 6.31184e-14 -2.34825e-14 0
lhumerus 14.5072 2.98051 71.4719
lradius 18.605 0 0
lwrist -37.4286 0 0
lhand -27.1983 28.5747 0
lfingers 7.12502 0 0
lthumb -0.611656 58.5575 0
rclavicle 6.31184e-14 -2.34825e-14 0
rhumerus -76.6504 21.3673 -96.132
rradius 109.975 0 0
rwrist -67.1882 0 0
rhand -10.7706 -24.8762 0
rfingers 7.12502 0 0
rthumb 15.2415 -54.2948 0
926
root -0.13493 14.0566 -36.2737 372.275 -26.8454 343.154
lfemur -65.2966 32.3222 -0.868559
ltibia 71.0692 0 0
lfoot -7.38174 -10.4251 0
ltoes -7.94723 0 0
rfemur 6.54454 -8.57357 13.1251
rtibia 38.5638 0 0
rfoot -22.3231 -28.8448 0
rtoes -28.0374 0 0
lowerback 11.1931 -0.121106 6.80384
upperback -1.43558 1.19404 6.05853
thorax -7.85093 0.404601 2.42247
lowerneck -3.89083 7.78552 2.84895
upperneck 4.51641 10.2751 -0.879603
head 2.29281 5.14266 -0.41531
lclavicle 6.33388e-14 -2.36256e-14 0
lhumerus 15.4131 1.49604 70.8844
lradius 19.4973 0 0
lwrist -36.2872 0 0
lhand -27.1643 28.6915 0
lfingers 7.12502 0 0
lthumb -0.57878 58.6753 0
rclavicle 6.33388e-14 -2.36256e-14 0
rhumerus -76.6528 21.359 -96.109
rradius 110.001 0 0
rwrist -67.1237 0 0
rhand -10.7562 -24.9091 0
rfingers 7.12502 0 0
rthumb 15.2554 -54.3266 0
